<?xml version="1.0" standalone="no"?>
<!DOCTYPE svg PUBLIC "-//W3C//DTD SVG 20010904//EN"
 "http://www.w3.org/TR/2001/REC-SVG-20010904/DTD/svg10.dtd">
<svg version="1.0" xmlns="http://www.w3.org/2000/svg"
 width="266.000000pt" height="266.000000pt" viewBox="0 0 266.000000 266.000000"
 preserveAspectRatio="xMidYMid meet">
<metadata>
Created by potrace 1.11, written by Peter Selinger 2001-2013
</metadata>
<g transform="translate(0.000000,266.000000) scale(0.100000,-0.100000)"
fill="#000000" stroke="none">
<path d="M130 1615 c0 -23 3 -25 50 -25 l50 0 0 -300 0 -300 -50 0 c-47 0 -50
-2 -50 -25 l0 -25 185 0 185 0 0 25 c0 23 -3 25 -50 25 l-50 0 0 140 0 140
205 0 205 0 0 -50 c0 -47 2 -50 25 -50 l25 0 0 120 0 120 -25 0 c-23 0 -25 -3
-25 -50 l0 -50 -202 2 -203 3 -3 138 -3 137 291 0 290 0 0 -70 c0 -63 2 -70
20 -70 19 0 20 7 20 95 l0 95 -445 0 -445 0 0 -25z m220 -325 l0 -300 -35 0
-35 0 0 300 0 300 35 0 35 0 0 -300z"/>
<path d="M1050 1615 c0 -25 1 -25 90 -25 l90 0 0 -300 0 -300 -90 0 c-89 0
-90 0 -90 -25 l0 -25 265 0 265 0 0 25 c0 25 -1 25 -90 25 l-90 0 0 300 0 300
90 0 c89 0 90 0 90 25 l0 25 -265 0 -265 0 0 -25z m310 -325 l0 -300 -40 0
-40 0 0 300 0 300 40 0 40 0 0 -300z"/>
<path d="M1660 1455 l0 -185 325 0 325 0 0 -140 0 -140 -300 0 -300 0 0 70 c0
68 -1 70 -25 70 -25 0 -25 0 -25 -95 l0 -95 410 0 410 0 0 185 0 185 -325 0
-325 0 0 140 0 140 300 0 300 0 0 -70 c0 -68 1 -70 25 -70 25 0 25 0 25 95 l0
95 -410 0 -410 0 0 -185z m120 -5 l0 -140 -35 0 -35 0 0 140 0 140 35 0 35 0
0 -140z m650 -320 l0 -140 -35 0 -35 0 0 140 0 140 35 0 35 0 0 -140z"/>
</g>
</svg>
